<svg width="46" height="46" viewBox="0 0 46 46" fill="none" xmlns="http://www.w3.org/2000/svg">
<path d="M42.6875 3.3125H3.3125V42.6875H42.6875V3.3125Z" fill="#52A535"/>
<path d="M34.8126 19.0624H26.9376V19.7233H34.8126V19.0624ZM26.9376 30.8749H19.0626V31.5358H26.9376V30.8749ZM30.8751 34.8124H26.9376V35.4733H30.8751V34.8124ZM19.0626 34.8124H15.1251V35.4733H19.0626V34.8124ZM19.0626 19.0624H11.1876V19.7233H19.0626V19.0624Z" fill="#86D562"/>
<path d="M34.8126 19.0626V11.1876H26.9376V19.0626H19.0626V23.0001H15.1251V34.8126H19.0626V30.8751H26.9376V34.8126H30.8751V23.0001H26.9376V19.0626H34.8126ZM19.0626 11.1876H11.1876V19.0626H19.0626V11.1876Z" fill="black"/>
<path d="M34.8126 11.1876H26.9376V11.8486H34.8126V11.1876ZM26.9376 19.0626H19.0626V19.7236H26.9376V19.0626ZM19.0626 11.1876H11.1876V11.8486H19.0626V11.1876ZM19.0626 23.0001H15.1251V23.6611H19.0626V23.0001ZM30.8751 23.0001H26.9376V23.6611H30.8751V23.0001Z" fill="#2A641C"/>
</svg>
